PathFileType	4	(X/Y/Z)	67_2_57_p0_0-136.trc
DataRate	CameraRate	NumFrames	NumMarkers	Units	OrigDataRate	OrigDataStartFrame	OrigNumFrames
59.0	59.0	6	27	m	59.0	0	137
Frame#	Time	RHip			RKnee			RAnkle			RBigToe			RSmallToe			RHeel			LHip			LKnee			LAnkle			LBigToe			LSmallToe			LHeel			Neck			Head			Nose			RShoulder			RElbow			RWrist			RThumb			RIndex			RPinky			LShoulder			LElbow			LWrist			LThumb			LIndex			LPinky			
		X1	Y1	Z1	X2	Y2	Z2	X3	Y3	Z3	X4	Y4	Z4	X5	Y5	Z5	X6	Y6	Z6	X7	Y7	Z7	X8	Y8	Z8	X9	Y9	Z9	X10	Y10	Z10	X11	Y11	Z11	X12	Y12	Z12	X13	Y13	Z13	X14	Y14	Z14	X15	Y15	Z15	X16	Y16	Z16	X17	Y17	Z17	X18	Y18	Z18	X19	Y19	Z19	X20	Y20	Z20	X21	Y21	Z21	X22	Y22	Z22	X23	Y23	Z23	X24	Y24	Z24	X25	Y25	Z25	X26	Y26	Z26	X27	Y27	Z27	
0	0.0	0.3978498902443479	0.5114272844975095	-0.0971434292645967	0.3839633840840682	0.6930027154329277	0.3379439014182485	0.38240738690613296	0.8499303808588455	0.7618244312841446	0.34992750539185513	0.6605986938905926	0.8204032862544418	0.4043581276538206	0.6915304874164194	0.8149833332402611	0.35714743381441105	0.945703456457479	0.8096963439910617	0.20381797074441757	0.5241856515577269	-0.08721731471363577	0.1960548284835984	0.6921392508886538	0.3306231990948934	0.1876246338707009	0.8386318557412206	0.7552759514015792	0.19463410961642183	0.6359074800396669	0.8091384888851135	0.1412392183686522	0.6872768992422352	0.7954446617019497	0.20375651344120443	0.8957767754790378	0.8052192357301475	0.3104758135305521	0.36623638263357106	-0.6286771634784933	0.32083246431957196	0.21188007062271902	-0.8491130868956902	0.31834631164484595	0.18514947942463095	-0.706126431524782	0.45473807911787834	0.3601068608400847	-0.5288758693027318	0.49706321511566	0.4194634519307461	-0.25391457272503554	0.3508388923844117	0.27813460903524995	-0.10827787904762752	0.2514479964245051	0.2610819340038266	-0.037632671005006314	0.24581574442422846	0.27903518506214825	-0.030629718330952738	0.2750182679750072	0.3207068845807247	-0.018425323545772695	0.15089618331546256	0.3963264513655673	-0.5577287419759653	0.1013562253929041	0.4286984470540419	-0.2963756772442021	0.23312734815661915	0.291109249124901	-0.12777420153839025	0.3261535842611481	0.24708135186405694	-0.06859651713739653	0.3295515184826873	0.24187942624453423	-0.0468617233699575	0.276186648595265	0.2564198599290783	-0.028360480844421377
1	0.01694915254237288	0.3972485781277274	0.5125126011468895	-0.09316121853249525	0.3841779750961557	0.692713710783573	0.3379691516960402	0.3828701319296444	0.8487295933595244	0.7653992677644651	0.35310809263630855	0.6721664569704113	0.8238632193446922	0.4129959769109249	0.6860716663581918	0.8092168826858508	0.3572329627370287	0.9449095175141087	0.8094748195092198	0.20295281173354124	0.5246877612586605	-0.08338703648584199	0.19488170484990122	0.693306747151619	0.3424753756341316	0.18849129117923738	0.8420969326599002	0.7605973144634589	0.1943562684037527	0.6363092507547516	0.8092136381103008	0.13645673406938452	0.6858440179019276	0.7951588577533464	0.2058581180564843	0.8920885124952042	0.7995107312258597	0.3105169531888681	0.36625880354780677	-0.628779750093001	0.3209061738350167	0.21194090203884006	-0.8490222181866528	0.31829163863404525	0.18505191870307502	-0.7061688787760095	0.4546565536946708	0.36028840771511383	-0.5288688299650492	0.49713425726849697	0.41972295524848185	-0.2538523412803092	0.34688182151064023	0.2905253064763073	-0.10834342993363509	0.2467223315783833	0.2623917423412231	-0.03490960537240049	0.2459684778958989	0.2788184316591824	-0.03076219139132897	0.27498352527748143	0.3205471095305644	-0.018386726247448415	0.15091579737630081	0.3961897259713581	-0.5577718332559259	0.10405715096277797	0.403216502747326	-0.2915363247941589	0.23766734911316856	0.29177856457172624	-0.12791493980519744	0.3331487839201108	0.2502927102912351	-0.06847228971464253	0.3339047475482129	0.24279039301517338	-0.04699536696610752	0.27571765509499047	0.2568788798800153	-0.028004079855549018
2	0.03389830508474576	0.3978838909468333	0.5144126358152808	-0.08499921950617478	0.38429438270035804	0.6924898661695017	0.33793739766218966	0.3866901513494191	0.8646589075709151	0.7693617564833688	0.35338928978839046	0.6732091684812778	0.8239135784196988	0.4134371796980797	0.6876365860393769	0.8093066810218151	0.35727664721793134	0.9448641158407808	0.8093281980210637	0.20313454821497973	0.5243603852780822	-0.07964035444789891	0.19443593902117134	0.6901553473884674	0.3374740582292571	0.18742563383432453	0.8395296113882591	0.7512474131293491	0.19434149337811227	0.6362475621117458	0.8090759030709666	0.14016468275862246	0.6883567611977035	0.7917664918892382	0.20555451265470112	0.8920577740956281	0.7995491589046347	0.31049801795680065	0.3663508850607655	-0.6287477614474726	0.3209507080041045	0.21201254850256945	-0.8490213311380315	0.31582765336082996	0.1747930584986765	-0.7004686828297263	0.4544807432967215	0.36031283993613517	-0.5287133563617321	0.5002334475323461	0.40568968008790246	-0.25387963909415945	0.3441789964247532	0.27886868316430385	-0.1083179029786029	0.2452326966831128	0.27569362781888324	-0.034190335944509764	0.24526026517266988	0.2801333000297305	-0.03060916102094494	0.271336788103098	0.3201143804476041	-0.01816226163052256	0.14887600969099465	0.38386844524929326	-0.5558971797237592	0.09911064930752407	0.41528881413555235	-0.29541506124719835	0.24196299274255925	0.27961504655306	-0.12801624981238563	0.3324561217147152	0.2509777644428962	-0.06339227926478704	0.33314089472801306	0.24446052304579471	-0.0400674315525452	0.2715081688104689	0.2696418747626456	-0.027908579645781858
3	0.05084745762711865	0.4019949549749873	0.49936933565492586	-0.08507910286107581	0.3841648984541585	0.6925173142324973	0.3378505151950361	0.3867276248699589	0.8647007011399863	0.7692365236699912	0.35307524312899086	0.6723508256560531	0.8240123472682944	0.40940786770689147	0.7024192694137223	0.810186164960473	0.35725038807911647	0.9448223199888296	0.8093757061697847	0.20480767075179115	0.5127463191158455	-0.0746715322471157	0.19994423103207754	0.6743072277858205	0.33508036166230265	0.1875390012878756	0.8393752418263559	0.7510904169327995	0.1942515984909563	0.6366449272525097	0.8092444455345326	0.13443313762909032	0.7046704573750304	0.7963958400615395	0.20569742070226593	0.8905590720587399	0.7990563598582314	0.31047313418518896	0.36625695421681825	-0.6287030287624353	0.3209487100884346	0.21194126558340162	-0.8490111624317891	0.315804867776743	0.17486667802438088	-0.7004665990046413	0.45440663569746903	0.3601984246009177	-0.5286334185168655	0.4964214010640492	0.41830450147425413	-0.25401158888461733	0.3467833827773113	0.29090609853509053	-0.10821943070202183	0.24134376671108698	0.27648484221186576	-0.03425997139115487	0.24512093218119566	0.2810456144245912	-0.030619931823141298	0.2712100562034635	0.32035921747338697	-0.018191426292262697	0.14878999467937895	0.38366827425804084	-0.5558590496470449	0.09909890473473187	0.4149821011946778	-0.2954093339573649	0.2419189482920969	0.2789440608413279	-0.12798392480824955	0.3282579967831152	0.2626632794196851	-0.06215795846630232	0.3325558075532857	0.24522031096429006	-0.03676511765993861	0.2669944530040747	0.2811421853371887	-0.027325679594497956
4	0.06779661016949153	0.4019755183283617	0.499021594127594	-0.08918247185420107	0.38337675956581047	0.6935209121775234	0.342222882055937	0.38666549485169277	0.8648064213512463	0.7693930561103132	0.35332089205815426	0.6721707684679019	0.8237861953677866	0.4143428105809841	0.6856554032579045	0.8050035524652807	0.3572203115749995	0.9447398516416657	0.8092170778278864	0.20415940026087323	0.5136238727159992	-0.07480970168203416	0.20059649547414582	0.676806289416792	0.34002667901275774	0.18761906922629154	0.8390185468873804	0.7509666771679321	0.19348223268169534	0.6329605029281968	0.8041447529893552	0.13992942462643151	0.6881178711693626	0.7917387675686361	0.20534469144551187	0.8908552703188899	0.7992611856002695	0.3104295792485045	0.3662045571109086	-0.628592748356174	0.3237354500970709	0.22306244207923853	-0.8519813256010775	0.3158015772791851	0.17490756058869958	-0.7004495060467684	0.45439063054927725	0.3603039071001623	-0.5286162094615985	0.4965908962993345	0.41838718421427223	-0.25386959338512327	0.3467347196373138	0.2911938589282787	-0.10812410795948794	0.24072176903171788	0.27445737623479827	-0.03858243727149862	0.2446487352744202	0.2807078996488933	-0.030562108094180956	0.2746139370393586	0.32140505602115327	-0.018277987824235398	0.14876269558953548	0.3835548588139712	-0.5558217140813743	0.09904337552152895	0.4148897560496075	-0.29538031916751245	0.2431189478191359	0.2783230918239816	-0.13096750031241497	0.324730199309827	0.2499932718568453	-0.06671820973944351	0.33325580788260606	0.2442739402338301	-0.0397940623878092	0.2673674968627321	0.28218146972643715	-0.027567167830587762
5	0.0847457627118644	0.40204490413891575	0.4988424319810864	-0.089443247673404	0.3795098176393371	0.6747775358483106	0.33139395643427505	0.38284612750549857	0.8488425834821867	0.7654354796150933	0.35242701453605896	0.6693751488830959	0.8187849275696449	0.4141975239129297	0.6849285518760075	0.8048851882932023	0.35722825655808566	0.9447432713448017	0.8091715113068432	0.20412939185387052	0.5136352499668337	-0.0746905183158894	0.1977120257063052	0.6615826585810947	0.3341780212579463	0.18751221562313825	0.8387174285494994	0.751074442134748	0.19350094805038218	0.6326495143600436	0.8040869190133862	0.139935274863066	0.6878384417176361	0.7917329157824614	0.20539436079974324	0.8907628280609645	0.7992519875207229	0.31038433715055147	0.3662854052372896	-0.6285950345795674	0.3209635072944487	0.21186392506896215	-0.8489744108541073	0.3157253858842933	0.17492512783455366	-0.700491610379322	0.45050953951323536	0.3731593460506219	-0.5304088492698451	0.49646921117180454	0.41887264975424754	-0.2540041063912538	0.3467827673128316	0.2915727881288681	-0.10819318156966366	0.24077245409979578	0.2732236383923083	-0.04270371301751265	0.24459583521991177	0.2798335218708649	-0.03408647804042045	0.2713656777543405	0.30929741272282646	-0.018800015437433808	0.14871852228338023	0.3835918131342443	-0.5558213886086291	0.09899898496971539	0.4151246484482626	-0.2954059321200645	0.2426356321725732	0.27882544860573477	-0.12794531254412336	0.3319405992641061	0.2618855032740096	-0.0700791596290723	0.33589172840753956	0.25627278685804666	-0.03931905125120461	0.27157379154927347	0.2702857404266765	-0.02785759731420372
